<svg width="17" height="17" viewBox="0 0 17 17" fill="none" xmlns="http://www.w3.org/2000/svg">
<path d="M12.325 0C10.846 0 9.4265 0.750409 8.5 1.93624C7.5735 0.750409 6.154 0 4.675 0C2.057 0 0 2.24196 0 5.09537C0 8.59728 2.89 11.4507 7.2675 15.7864L8.5 17L9.7325 15.7771C14.11 11.4507 17 8.59728 17 5.09537C17 2.24196 14.943 0 12.325 0ZM8.585 14.406L8.5 14.4986L8.415 14.406C4.369 10.4131 1.7 7.77275 1.7 5.09537C1.7 3.24251 2.975 1.85286 4.675 1.85286C5.984 1.85286 7.259 2.77003 7.7095 4.03924H9.299C9.741 2.77003 11.016 1.85286 12.325 1.85286C14.025 1.85286 15.3 3.24251 15.3 5.09537C15.3 7.77275 12.631 10.4131 8.585 14.406Z" fill="#E4E4E4"/>
</svg>
